<svg width="40" height="40" viewBox="0 0 40 40" fill="none" xmlns="http://www.w3.org/2000/svg">
    <style>
        .favicon {
            fill: #000;
        }

        @media (prefers-color-scheme: dark) {
            .favicon {
                fill: #fff;
            }
        }
    </style>

    <path d="M20 9.52064C22.0023 9.52063 29.0774 7.07828 29.0774 7.07828C30.4662 6.80691 33.3631 6.62237 33.8393 8.05523C34.2914 9.4158 33.799 10.9643 33.4057 12.2011C33.2813 12.5924 33.1668 12.9525 33.0952 13.2656C32.7976 14.5682 32.5 17.0106 34.2857 16.8477C36.0714 16.6849 36.6666 15.5451 36.6666 13.2656C36.6666 10.9861 36.2202 7.24111 33.9881 6.10134C31.7559 4.96158 26.3988 3.33334 20 3.33334C13.6012 3.33334 8.24403 4.96158 6.01188 6.10134C3.77974 7.24111 3.33331 10.9861 3.33331 13.2656C3.33331 15.5451 3.92855 16.6849 5.71427 16.8477C7.49998 17.0106 7.20236 14.5682 6.90474 13.2656C6.83321 12.9525 6.71869 12.5924 6.59426 12.2011L6.59424 12.2011C6.20094 10.9643 5.70852 9.4158 6.16069 8.05523C6.63688 6.62237 9.53371 6.80691 10.9226 7.07828C10.9226 7.07828 17.9166 9.52065 20 9.52064Z" class="favicon"/>
    <path fill-rule="evenodd" clip-rule="evenodd" d="M21.8648 36.1033C21.8356 36.0136 21.7989 35.9394 21.7568 35.8885L21.7205 35.9676L21.7158 35.9754C21.6371 36.1066 21.5178 36.1838 21.3742 36.2122C21.2293 36.2409 21.0912 36.2127 20.9683 36.1264C20.8475 36.0416 20.7667 35.9208 20.7326 35.7702C20.6955 35.605 20.7282 35.4451 20.8154 35.2998C20.9222 35.122 21.0776 35.0174 21.2718 34.9955C21.4334 34.9774 21.6455 34.9766 21.8563 35.1246C22.0783 35.2806 22.2157 35.5424 22.2985 35.7737C22.3821 36.0073 22.4191 36.2357 22.4257 36.3563C22.4299 36.4344 22.4151 36.5165 22.3643 36.5806C22.3117 36.6469 22.2387 36.6705 22.1739 36.6662C22.0556 36.6582 21.9363 36.5554 21.9245 36.3996C21.9201 36.3413 21.9034 36.2221 21.8648 36.1033Z" class="favicon"/>
    <path fill-rule="evenodd" clip-rule="evenodd" d="M18.4784 36.1033C18.5076 36.0136 18.5443 35.9394 18.5864 35.8885L18.6227 35.9676L18.6274 35.9754C18.7061 36.1066 18.8254 36.1838 18.969 36.2122C19.1139 36.2409 19.252 36.2127 19.3749 36.1264C19.4957 36.0416 19.5765 35.9208 19.6106 35.7702C19.6477 35.605 19.615 35.4451 19.5278 35.2998C19.421 35.122 19.2656 35.0174 19.0714 34.9955C18.9098 34.9774 18.6977 34.9766 18.4869 35.1246C18.2649 35.2806 18.1275 35.5424 18.0447 35.7737C17.9611 36.0073 17.9241 36.2357 17.9175 36.3563C17.9133 36.4344 17.9281 36.5165 17.9789 36.5806C18.0315 36.6469 18.1045 36.6705 18.1693 36.6662C18.2876 36.6582 18.4069 36.5554 18.4187 36.3996C18.4231 36.3413 18.4398 36.2221 18.4784 36.1033Z" class="favicon"/>
    <path d="M11.0256 20.6944C13.9215 20.6944 17.0588 21.605 18.2654 22.0603C19.4721 22.5156 20.5279 22.5156 21.7345 22.0603C22.9412 21.605 26.0784 20.6944 28.9743 20.6944C31.8703 20.6944 35.1081 21.4027 36.365 21.7568L36.6666 24.1849C36.3147 24.2355 35.6108 24.3974 35.6108 24.6402C35.6108 24.9437 35.3784 31.1365 31.6893 32.2282C29.1252 32.987 26.4102 32.5318 24.9019 31.3177C24.2357 30.7814 22.0362 28.4342 21.7345 26.3096C21.5152 24.7651 20.6216 24.6065 20.0754 24.6065H19.9246C19.3212 24.6402 18.4847 24.7651 18.2654 26.3096C17.9638 28.4342 15.7643 30.7814 15.098 31.3177C13.5897 32.5318 10.8748 32.987 8.31069 32.2282C4.62153 31.1365 4.38912 24.9437 4.38912 24.6402C4.38912 24.3974 3.68525 24.2355 3.33331 24.1849L3.63497 21.7568C4.89188 21.4027 8.12969 20.6944 11.0256 20.6944Z" class="favicon"/>
</svg>
